<?xml version="1.0" encoding="utf-8"?>
<!-- Generator: Adobe Illustrator 26.0.0, SVG Export Plug-In . SVG Version: 6.00 Build 0)  -->
<svg version="1.1" id="Layer_2_00000116948961928361993350000016472485525420361903_"
	 xmlns="http://www.w3.org/2000/svg" xmlns:xlink="http://www.w3.org/1999/xlink" x="0px" y="0px" viewBox="0 0 300 153.2"
	 style="enable-background:new 0 0 300 153.2;" xml:space="preserve">
<style type="text/css">
	.st0{fill:#E64924;}
	.st1{fill:#FFFFFF;}
	.st2{fill:#E32027;}
	.st3{fill:#214080;}
	.st4{fill:#4797B9;}
	.st5{fill:#8FC23E;}
	.st6{fill:#EDB01E;}
	.st7{fill:#1B1716;}
	.st8{fill:#10100F;}
</style>
<g id="Layer_1-2">
	<g>
		<g>
			<g>
				<rect x="68" y="119" class="st0" width="170.7" height="18.3"/>
				<g>
					<path class="st1" d="M82.5,131.1l-0.5-2.4h-3.4l-1.6,2.4h-0.8l4.6-7.3h0.8l1.6,7.3H82.5L82.5,131.1z M81.1,124.7L79,128h2.8
						L81.1,124.7z"/>
					<path class="st1" d="M94,131.1l0.7-3.1c0.1-0.5,0.1-0.9-0.1-1.2c-0.2-0.3-0.5-0.5-1-0.5s-0.9,0.2-1.2,0.5
						c-0.3,0.3-0.5,0.7-0.6,1.2l-0.7,3.1h-0.7L91,128c0.1-0.5,0.1-0.9-0.1-1.2c-0.2-0.3-0.5-0.5-1-0.5s-0.9,0.2-1.2,0.5
						c-0.3,0.3-0.5,0.7-0.6,1.2l-0.7,3.1h-0.7l1.1-5.4h0.7l-0.1,0.6c0.4-0.5,1-0.8,1.6-0.8c0.8,0,1.3,0.3,1.6,1c0.6-0.7,1.2-1,2-1
						c0.7,0,1.2,0.2,1.4,0.7c0.3,0.4,0.3,1,0.2,1.7l-0.7,3.2H94L94,131.1z"/>
					<path class="st1" d="M101.8,128.7h-4.9c-0.1,0.5,0,1,0.4,1.4c0.3,0.4,0.8,0.6,1.3,0.6c0.4,0,0.8-0.1,1.2-0.3
						c0.4-0.2,0.7-0.5,1-0.9h0.7c-0.3,0.6-0.8,1-1.3,1.4s-1.1,0.5-1.7,0.5c-0.8,0-1.4-0.3-1.8-0.8s-0.6-1.2-0.4-2
						c0.2-0.8,0.6-1.4,1.2-2c0.7-0.6,1.4-0.8,2.2-0.8s1.4,0.3,1.8,0.9c0.4,0.6,0.6,1.2,0.4,2L101.8,128.7L101.8,128.7z M101.2,128.1
						c0-0.5-0.1-1-0.4-1.3c-0.3-0.3-0.7-0.5-1.3-0.5s-1,0.2-1.5,0.5c-0.5,0.3-0.8,0.8-1,1.3H101.2L101.2,128.1z"/>
					<path class="st1" d="M109.6,131.1l0.7-3.1c0.1-0.5,0.1-0.9-0.1-1.2c-0.2-0.3-0.5-0.5-1-0.5s-0.9,0.2-1.2,0.5
						c-0.3,0.3-0.5,0.7-0.6,1.2l-0.7,3.1H106l0.7-3.1c0.1-0.5,0.1-0.9-0.1-1.2c-0.2-0.3-0.5-0.5-1-0.5s-0.9,0.2-1.2,0.5
						c-0.3,0.3-0.5,0.7-0.6,1.2l-0.7,3.1h-0.7l1.1-5.4h0.7l-0.1,0.6c0.4-0.5,1-0.8,1.6-0.8c0.8,0,1.3,0.3,1.6,1c0.6-0.7,1.2-1,2-1
						c0.7,0,1.2,0.2,1.4,0.7c0.3,0.4,0.3,1,0.2,1.7l-0.7,3.2H109.6L109.6,131.1z"/>
					<path class="st1" d="M116.6,130.4c-0.7,0.5-1.4,0.8-2.2,0.8c-0.9,0-1.5-0.4-1.9-1.1h0l-0.2,0.9h-0.7l1.5-7.3h0.7l-0.6,2.8h0
						c0.7-0.7,1.4-1.1,2.3-1.1c0.8,0,1.4,0.3,1.9,0.8c0.4,0.5,0.6,1.2,0.4,2S117.2,129.9,116.6,130.4z M116.8,126.8
						c-0.3-0.4-0.8-0.6-1.4-0.6s-1.2,0.2-1.7,0.7c-0.5,0.4-0.8,0.9-0.9,1.5c-0.1,0.6,0,1.1,0.3,1.5c0.3,0.4,0.8,0.6,1.4,0.6
						s1.2-0.2,1.7-0.6c0.5-0.4,0.8-0.9,1-1.6C117.3,127.8,117.2,127.3,116.8,126.8L116.8,126.8z"/>
					<path class="st1" d="M124.1,128.7h-4.9c-0.1,0.5,0,1,0.4,1.4c0.3,0.4,0.8,0.6,1.3,0.6c0.4,0,0.8-0.1,1.2-0.3
						c0.4-0.2,0.7-0.5,1-0.9h0.7c-0.3,0.6-0.8,1-1.3,1.4s-1.1,0.5-1.7,0.5c-0.8,0-1.4-0.3-1.8-0.8s-0.6-1.2-0.4-2
						c0.2-0.8,0.6-1.4,1.2-2c0.7-0.6,1.4-0.8,2.2-0.8s1.4,0.3,1.8,0.9s0.6,1.2,0.4,2L124.1,128.7L124.1,128.7z M123.5,128.1
						c0-0.5-0.1-1-0.4-1.3c-0.3-0.3-0.7-0.5-1.3-0.5s-1,0.2-1.5,0.5c-0.5,0.3-0.8,0.8-1,1.3H123.5L123.5,128.1z"/>
					<path class="st1" d="M127.8,126.3c-1,0.1-1.7,0.6-1.9,1.6l-0.7,3.1h-0.7l1.1-5.4h0.7l-0.2,0.8h0c0.2-0.3,0.5-0.6,0.8-0.7
						c0.2-0.1,0.6-0.2,0.9-0.2L127.8,126.3L127.8,126.3z"/>
					<path class="st1" d="M135,130.4c-0.7,0.6-1.4,0.8-2.2,0.8s-1.4-0.3-1.8-0.8c-0.4-0.6-0.6-1.2-0.4-2c0.2-0.8,0.6-1.4,1.2-2
						c0.7-0.6,1.4-0.8,2.2-0.8s1.4,0.3,1.8,0.8c0.4,0.6,0.6,1.2,0.4,2C136.1,129.2,135.7,129.8,135,130.4L135,130.4z M135.3,126.9
						c-0.3-0.4-0.8-0.7-1.4-0.7s-1.1,0.2-1.7,0.7c-0.5,0.4-0.8,0.9-0.9,1.6c-0.1,0.6,0,1.1,0.3,1.5c0.3,0.4,0.8,0.6,1.4,0.6
						s1.2-0.2,1.7-0.7c0.5-0.4,0.8-0.9,0.9-1.6C135.7,127.8,135.6,127.3,135.3,126.9L135.3,126.9z"/>
					<path class="st1" d="M138.8,126.4l-1,4.8h-0.7l1-4.8h-0.8l0.1-0.6h0.8l0.1-0.2c0-0.1,0-0.1,0.1-0.2c0.1-0.2,0.1-0.3,0.1-0.4
						c0.2-0.4,0.5-0.8,0.9-1c0.3-0.2,0.8-0.2,1.3-0.2l-0.1,0.6c-0.9,0-1.5,0.4-1.7,1.3v0h1.4l-0.1,0.6L138.8,126.4L138.8,126.4z"/>
					<path class="st1" d="M142.8,131.1l1.5-7.3h4l-0.4,1.6h-2.3l-0.2,1.1h2.2l-0.4,1.6h-2.2l-0.3,1.2h2.3l-0.3,1.6H142.8
						L142.8,131.1z"/>
					<path class="st1" d="M155.7,131.2c-0.2,0-0.4,0-0.5,0c-0.3,0-0.6,0-0.9-0.1c-0.3-0.1-0.6-0.2-0.7-0.4c-0.7,0.4-1.4,0.6-2.2,0.6
						c-1.1,0-1.9-0.4-2.5-1.1c-0.6-0.7-0.8-1.6-0.6-2.7c0.2-1.1,0.8-2,1.7-2.7c0.9-0.7,1.9-1.1,2.9-1.1s1.9,0.3,2.5,1.1
						c0.6,0.7,0.8,1.6,0.6,2.7c-0.2,0.8-0.5,1.5-1,2.1c0.2,0.2,0.5,0.3,0.9,0.2L155.7,131.2L155.7,131.2z M152.4,129
						c-0.1-0.1-0.2-0.3-0.4-0.4c-0.3-0.2-0.6-0.3-1-0.3c-0.2,0-0.4,0-0.7,0.1c0.2,0.8,0.7,1.2,1.5,1.2c0.3,0,0.6-0.1,0.9-0.2
						C152.6,129.3,152.5,129.1,152.4,129L152.4,129z M154.1,125.9c-0.3-0.4-0.7-0.6-1.3-0.6c-0.5,0-1,0.2-1.4,0.5
						c-0.4,0.3-0.7,0.8-0.9,1.3c0.2-0.1,0.4-0.2,0.5-0.2c0.2,0,0.4-0.1,0.5-0.1c0.5,0,1,0.2,1.4,0.5c0.4,0.3,0.7,0.6,1,1.1
						c0.2-0.3,0.4-0.6,0.5-1.1C154.4,126.8,154.3,126.3,154.1,125.9L154.1,125.9z"/>
					<path class="st1" d="M159.9,131.1l0.1-0.6h0c-0.2,0.3-0.4,0.5-0.7,0.6c-0.2,0.1-0.5,0.2-0.9,0.2c-0.7,0-1.2-0.2-1.5-0.7
						c-0.1-0.3-0.2-0.5-0.2-0.8c0-0.2,0-0.5,0.1-0.9l0.7-3.3h1.6l-0.6,3c-0.1,0.4-0.1,0.6,0,0.8c0.1,0.2,0.3,0.3,0.6,0.3
						c0.6,0,1-0.4,1.2-1.1l0.6-3h1.6l-1.2,5.5L159.9,131.1L159.9,131.1z"/>
					<path class="st1" d="M168.5,128.9h-4.1c-0.1,0.7,0.3,1,1.1,1c0.4,0,0.8-0.2,1.1-0.5h1.7c-0.4,0.6-0.8,1-1.3,1.4
						c-0.6,0.4-1.1,0.5-1.7,0.5c-0.8,0-1.4-0.3-1.9-0.9c-0.4-0.6-0.6-1.2-0.4-2c0.2-0.8,0.6-1.5,1.3-2.1c0.7-0.6,1.4-0.9,2.2-0.9
						s1.4,0.3,1.9,0.9c0.4,0.6,0.5,1.3,0.4,2.1C168.6,128.6,168.6,128.7,168.5,128.9L168.5,128.9z M167.2,127.8c0-0.6-0.4-0.9-1-0.9
						s-1.2,0.3-1.4,0.9H167.2L167.2,127.8z"/>
					<path class="st1" d="M172.4,130.8c-0.5,0.3-1,0.5-1.6,0.5s-1.1-0.1-1.4-0.5c-0.4-0.3-0.5-0.8-0.4-1.4h1.6
						c0,0.3,0.1,0.5,0.5,0.5c0.1,0,0.3,0,0.4-0.1c0.1-0.1,0.2-0.2,0.3-0.3c0-0.2,0-0.3-0.2-0.4l-0.2-0.1l-0.9-0.3
						c-0.4-0.1-0.6-0.3-0.8-0.5c-0.2-0.3-0.3-0.6-0.2-0.9c0.1-0.5,0.4-1,0.9-1.3c0.5-0.3,1-0.5,1.6-0.5s1,0.1,1.3,0.4
						c0.3,0.3,0.5,0.7,0.4,1.3h-1.6c0.1-0.3-0.1-0.4-0.4-0.4c-0.3,0-0.5,0.1-0.6,0.4c0,0.2,0.1,0.3,0.3,0.4c0.1,0,0.2,0.1,0.4,0.2
						c0,0,0,0,0.1,0l0.4,0.1c0.2,0.1,0.3,0.1,0.5,0.2c0.2,0.1,0.3,0.2,0.4,0.3c0.2,0.3,0.3,0.6,0.2,1.1
						C173.3,130,172.9,130.5,172.4,130.8L172.4,130.8z"/>
					<path class="st1" d="M176.8,126.9l-0.9,4.2h-1.6l0.9-4.2h-0.8l0.3-1.2h0.8l0.4-1.8h1.6l-0.4,1.8h0.8l-0.3,1.2H176.8z"/>
					<path class="st1" d="M180.4,131.1l1.5-7.3h4l-0.3,1.6h-2.3l-0.2,1.1h2.2l-0.3,1.6h-2.2l-0.3,1.2h2.3l-0.3,1.6H180.4z"/>
					<path class="st1" d="M189.7,131.1l0.1-0.6h0c-0.2,0.3-0.5,0.5-0.8,0.6c-0.3,0.1-0.6,0.2-1,0.2c-0.8,0-1.4-0.3-1.8-0.9
						c-0.4-0.6-0.5-1.2-0.3-2.1c0.2-0.8,0.6-1.5,1.2-2c0.6-0.6,1.4-0.9,2.1-0.9c0.6,0,1.1,0.2,1.5,0.7l0.5-2.3h1.6l-1.6,7.3
						L189.7,131.1L189.7,131.1z M190.1,127.4c-0.2-0.3-0.5-0.4-0.9-0.4s-0.8,0.1-1.1,0.4c-0.3,0.3-0.5,0.6-0.6,1
						c-0.1,0.4,0,0.7,0.2,1s0.5,0.4,0.9,0.4s0.8-0.1,1.1-0.4c0.3-0.3,0.5-0.6,0.6-1C190.3,128,190.3,127.6,190.1,127.4L190.1,127.4z
						"/>
					<path class="st1" d="M195.9,131.1l0.1-0.6h0c-0.2,0.3-0.4,0.5-0.7,0.6c-0.2,0.1-0.5,0.2-0.9,0.2c-0.7,0-1.2-0.2-1.5-0.7
						c-0.1-0.3-0.2-0.5-0.2-0.8c0-0.2,0-0.5,0.1-0.9l0.7-3.3h1.6l-0.6,3c-0.1,0.4-0.1,0.6,0,0.8c0.1,0.2,0.3,0.3,0.6,0.3
						c0.6,0,1-0.4,1.2-1.1l0.6-3h1.6l-1.2,5.5L195.9,131.1L195.9,131.1z"/>
					<path class="st1" d="M204.6,129c-0.3,0.7-0.8,1.2-1.4,1.6c-0.6,0.4-1.3,0.6-2,0.6c-0.8,0-1.4-0.3-1.9-0.9
						c-0.4-0.6-0.6-1.2-0.4-2.1c0.2-0.8,0.6-1.5,1.3-2.1c0.7-0.6,1.4-0.8,2.2-0.8c0.7,0,1.3,0.2,1.7,0.6s0.7,1,0.7,1.7h-1.6
						c-0.1-0.5-0.5-0.8-1.1-0.8c-0.4,0-0.7,0.1-1,0.4c-0.3,0.3-0.5,0.6-0.5,1c-0.1,0.4,0,0.7,0.1,1c0.2,0.3,0.5,0.4,0.9,0.4
						c0.5,0,1-0.2,1.3-0.7L204.6,129L204.6,129z"/>
					<path class="st1" d="M209.1,131.1l0.1-0.6h0c-0.2,0.3-0.5,0.5-0.8,0.6c-0.3,0.1-0.6,0.2-0.9,0.2c-0.8,0-1.4-0.3-1.8-0.9
						c-0.4-0.6-0.5-1.2-0.3-2.1c0.2-0.8,0.6-1.5,1.2-2.1c0.6-0.6,1.4-0.9,2.2-0.9c0.3,0,0.6,0.1,0.9,0.2c0.3,0.1,0.5,0.3,0.6,0.6h0
						l0.1-0.6h1.6l-1.2,5.5L209.1,131.1L209.1,131.1z M209.5,127.4c-0.2-0.3-0.5-0.4-0.9-0.4s-0.8,0.1-1.1,0.4
						c-0.3,0.3-0.5,0.6-0.6,1c-0.1,0.4,0,0.7,0.2,1c0.2,0.3,0.5,0.4,0.9,0.4s0.8-0.1,1.1-0.4c0.3-0.3,0.5-0.6,0.6-1
						C209.8,128,209.7,127.7,209.5,127.4L209.5,127.4z"/>
					<path class="st1" d="M214.8,126.9l-0.9,4.2h-1.6l0.9-4.2h-0.8l0.3-1.2h0.8l0.4-1.8h1.6l-0.4,1.8h0.8l-0.3,1.2H214.8
						L214.8,126.9z"/>
					<path class="st1" d="M215.4,131.1l1.2-5.4h1.6l-1.2,5.4H215.4z M216.6,125.1l0.3-1.2h1.6l-0.3,1.2H216.6z"/>
					<path class="st1" d="M223.1,130.5c-0.7,0.6-1.4,0.8-2.3,0.8s-1.5-0.3-1.9-0.8c-0.4-0.6-0.6-1.2-0.4-2.1
						c0.2-0.8,0.6-1.5,1.3-2.1s1.4-0.8,2.3-0.8s1.5,0.3,1.9,0.8c0.4,0.6,0.6,1.2,0.4,2.1C224.2,129.2,223.8,129.9,223.1,130.5z
						 M222.6,127.4c-0.2-0.3-0.5-0.4-0.9-0.4s-0.7,0.1-1,0.4c-0.3,0.3-0.5,0.6-0.6,1c-0.1,0.4,0,0.7,0.2,1s0.5,0.4,0.8,0.4
						s0.7-0.1,1-0.4c0.3-0.3,0.5-0.6,0.6-1C222.8,128,222.8,127.7,222.6,127.4L222.6,127.4z"/>
					<path class="st1" d="M228.1,131.1l0.6-3c0.1-0.3,0.1-0.6,0-0.8c-0.1-0.2-0.3-0.3-0.6-0.3c-0.4,0-0.6,0.1-0.8,0.3
						c-0.2,0.2-0.3,0.4-0.4,0.8l-0.6,3h-1.6l1.2-5.4h1.5l-0.1,0.6h0c0.4-0.5,1-0.8,1.6-0.8c0.6,0,1,0.2,1.3,0.5
						c0.2,0.2,0.3,0.5,0.3,0.8c0,0.3,0,0.6-0.1,0.9l-0.7,3.4L228.1,131.1L228.1,131.1z"/>
				</g>
			</g>
			<g>
				<path class="st2" d="M120,65.5c0,0-2.7,1.7-0.7,3.9c0,0,2.9,2.1,5.4,0c0,0,1.7-1.7,0.4-3.9c0,0-2.6-6.5-13.2-3
					c-1.6,0.5-3.1,1.5-4.6,3.2c0,0-2.4,2.8,1,6c0,0,3.1,2.9,5.8,3.8c0,0,6.3,2.6,6.8,3.3c0,0,3.8,2.1,0.8,6.4
					c-0.6,0.8-1.3,1.7-3.1,2.4c0,0-5.3,1.1-7.8-1.8c0,0-1.9-1.7-0.4-3.4c0,0,2.3-0.6,2.3-1.7c0,0,0.8-3.4-3.9-2.8c0,0-3.7,0.6-4,5
					c0,0,0,3.2,3.1,5.7c0,0,2,1.9,5.2,2.2c0,0,5.8,0.7,9.7-2.1c0,0,3.9-2.7,4.1-7.1c0,0,0.2-5.2-5.5-7.4c0,0-13-3.5-9.7-7.5
					c0,0,2-2.3,5.6-2.3C117.4,64.4,121.1,64.5,120,65.5"/>
				<path class="st3" d="M130.4,66.4l6-1.5l2.3,9.6c0,0,1.5-9.8,7.6-9.6c0,0,4.6-0.6,6.5,4.8c0,0,1.6-6.2,6-7.3c0,0,8.6-2.5,8.6,6.9
					l-1,21.7h-8.9c0,0,3.7-12.6,3.6-19.4c0,0,0.5-5.2-2.3-1.8c0,0-2.8,8-2.6,14.2l-7.3,0.3c0,0,0.2-10.1-0.8-12.9
					c0,0-3.4-5.6-5.4,0.3c0,0-1,17.1,0.3,19.3h-9.3"/>
				<path class="st4" d="M175.3,62.2v4.3c0,0,11-2.8,11.7,6.5c0,0-6-3.3-11.1,0c0,0-7.3,4.6-5.1,12.5c0,0,1.6,6.3,9.1,5.1
					c0,0,4.2-0.5,6.3-4.2l-0.2,4.3h4.3c0,0,2.6-16.1,0-23c0,0-1.4-5.6-7.3-5.6"/>
				<path class="st5" d="M198.9,66.8c0,0-6.9-0.7-3.1-3.1c0,0,1.9-1.2,6.5-1.5v2.3c0,0,5.9-4.1,10.9-1.5c0,0,5.9,1.9,5.5,8.1
					c0,0-0.2,2.4-1.5,3.7c-0.9,1-3.3,1.4-4-0.2c0,0-0.5-1-0.5-2.2c0,0,0.8-7-6-5.5c0,0-3.1,1.5-3.1,6.5l-0.2,12.2c0,0,2.6-0.5,3,0.6
					c0.5,1.5-1.4,4.8-7.9,4.6c0,0-3.1,0-2.9-2.8c0,0-0.3-2.1,2.1-1.8"/>
				<path class="st6" d="M221.9,51.8h-6.7v-7.2h6.7v-7.7h5.8v7.9h5.4v4.8l-6.3,0.2v36.7h5.8v4.3h-7.2c0,0-2.3-0.5-2.5-2.7"/>
				<g>
					<path class="st0" d="M83,55.1c-0.4-0.5-0.9-0.8-1.5-1C81.2,54,80.9,54,80.7,54c-0.3,0-0.6-0.1-1.1-0.1c0,0-6.9-0.8-12.2-4.3
						c0,0-0.3-0.2-0.9-0.4C66.4,49,66.3,49,66.2,49c-0.8-0.2-1.6-0.1-2.2,0.2c0,0,0,0,0,0c-0.1,0-0.2,0.1-0.3,0.2c0,0,0,0,0,0
						c0,0-0.7,0.4-1.1,1.3c-0.1,0.1-0.1,0.3-0.2,0.4c-0.1,0.5-0.2,0.9-0.1,1.4c0,0.1,0,0.1,0,0.2c0,0,0,0.3,0.3,0.7
						c0.1,0.2,0.2,0.3,0.3,0.5c0,0,0,0.1,0.1,0.1c0,0,0,0,0,0c0.7,0.9,1.8,1.6,4.9,3c0,0,4.4,2.4,11.4,3.4c0,0,2.8,0.4,4-1.5
						c0,0,0.1-0.2,0.2-0.5c0,0,0,0,0-0.1c0,0,0-0.1,0-0.1c0,0,0-0.1,0-0.1c0-0.1,0.1-0.2,0.1-0.4c0.1-0.7,0.1-1.5-0.5-2.3
						C83.1,55.3,83.1,55.2,83,55.1"/>
					<path class="st0" d="M102.3,36l-4.8,1.9L93.4,35c-2.5,1.3-4.2,4-4.2,7c0,4.4,3.6,7.9,7.9,7.9s7.9-3.5,7.9-7.9
						C105.1,39.6,104,37.4,102.3,36"/>
					<path class="st0" d="M124.5,47.7c0,0-0.1-0.2-0.2-0.5c0,0,0,0,0-0.1c0,0,0-0.1-0.1-0.1c0,0,0-0.1-0.1-0.1
						c-0.1-0.1-0.1-0.2-0.2-0.3c-0.4-0.5-1-1.1-2-1.2c0,0-0.1,0-0.2,0c-0.6,0-1.2,0.1-1.8,0.4c-0.2,0.1-0.4,0.3-0.6,0.5
						c-0.2,0.2-0.5,0.4-0.8,0.7c0,0-5.3,4.5-11.5,5.9c0,0-0.4,0.1-0.9,0.3c-0.1,0-0.3,0.1-0.4,0.2c-0.7,0.4-1.2,1-1.4,1.7
						c0,0,0,0,0,0c0,0.1-0.1,0.2-0.1,0.3c0,0,0,0,0,0c0,0-0.2,0.8,0.2,1.7c0.1,0.1,0.1,0.2,0.2,0.4c0.2,0.4,0.6,0.8,0.9,1
						c0.1,0,0.1,0.1,0.2,0.1c0,0,0.2,0.2,0.7,0.3c0.2,0,0.3,0.1,0.5,0.1c0,0,0.1,0,0.1,0c0,0,0,0,0.1,0c1.1,0.1,2.3-0.2,5.5-1.5
						c0,0,4.8-1.6,10.3-6C122.8,51.6,125.1,49.9,124.5,47.7"/>
					<path class="st0" d="M99.6,55.4c-0.2-0.2-0.4-0.4-0.6-0.6c0,0,0,0,0,0c0,0-1.3-1.3-3.7-1.6c-0.3,0-0.6-0.1-1-0.1
						c-1.1,0-2.2,0.3-3.1,0.7c-0.1,0.1-0.3,0.1-0.4,0.2c0,0-0.6,0.3-1.4,1.1c-0.3,0.3-0.6,0.6-0.8,1c-0.1,0.1-0.1,0.1-0.1,0.2
						c0,0-0.1,0.1-0.1,0.1c-1.6,2.1-2.3,5-3.5,12.8c0,0-2.4,11.4,0,27.7c0,0,0.8,6.5,6,8c0,0,0.5,0.2,1.3,0.2c0.1,0,0.1,0,0.2,0
						c0.1,0,0.2,0,0.3,0c0.1,0,0.2,0,0.3,0c0.3,0,0.6,0,0.9-0.1c1.6-0.2,3.4-0.8,4.8-2.7c0,0,0.1-0.2,0.3-0.4
						c0.8-1.2,1.2-2.6,1.2-4.1c0-0.6-0.1-1.2-0.2-1.8c-0.1-0.7-0.2-1.5-0.5-2.5c0,0-2.9-15.8,1.7-30c0,0,0.3-0.9,0.4-2.2
						c0.1-0.3,0.1-0.7,0.1-1c0-1.9-0.7-3.5-1.9-4.8C99.7,55.5,99.6,55.5,99.6,55.4"/>
					<path class="st7" d="M81.2,27.6l0.7-1.8l15.7,11l19.3-7.5L98.8,15.9L80,24.2H99V25H80.1L80,27.4c-1,0.1-1.8,1-1.8,2
						c0,0.7,0.3,1.2,0.8,1.6l-4.7,17.2l6.6,1.3V31.2c0.8-0.3,1.3-1,1.3-1.9C82.3,28.6,81.9,27.9,81.2,27.6 M97.5,37.8L86,29.7
						l-3.6,2L97,44.9l15.7-7.9l-3.8-3.6L97.5,37.8L97.5,37.8z"/>
				</g>
				<polyline class="st8" points="109.6,97.5 107,97.5 107,96.6 113.2,96.6 113.2,97.5 110.6,97.5 110.6,104.9 109.6,104.9 				"/>
				<path class="st8" d="M113.6,100.8c0-0.7,0-1.3-0.1-1.9h0.9l0,1.2h0.1c0.3-0.8,0.9-1.3,1.7-1.3c0.1,0,0.2,0,0.3,0v1
					c-0.1,0-0.2,0-0.4,0c-0.8,0-1.3,0.6-1.5,1.4c0,0.2-0.1,0.3-0.1,0.5v3.2h-1.1"/>
				<path class="st8" d="M120.9,104.9l-0.1-0.8h0c-0.3,0.5-1,0.9-1.8,0.9c-1.2,0-1.8-0.8-1.8-1.7c0-1.4,1.3-2.2,3.6-2.2V101
					c0-0.5-0.1-1.4-1.4-1.4c-0.6,0-1.1,0.2-1.6,0.4l-0.2-0.7c0.5-0.3,1.2-0.5,2-0.5c1.8,0,2.3,1.2,2.3,2.4v2.2c0,0.5,0,1,0.1,1.4
					 M120.7,101.9c-1.2,0-2.5,0.2-2.5,1.3c0,0.7,0.5,1,1,1c0.8,0,1.3-0.5,1.4-1c0-0.1,0.1-0.2,0.1-0.3L120.7,101.9L120.7,101.9
					L120.7,101.9z"/>
				<path class="st8" d="M123.6,100.6c0-0.6,0-1.1-0.1-1.6h1l0.1,1h0c0.3-0.6,1-1.1,2-1.1c0.8,0,2.1,0.5,2.1,2.5v3.6h-1.1v-3.4
					c0-1-0.4-1.8-1.4-1.8c-0.7,0-1.3,0.5-1.5,1.1c-0.1,0.1-0.1,0.3-0.1,0.5v3.6h-1.1"/>
				<path class="st8" d="M130.4,103.8c0.3,0.2,0.9,0.4,1.4,0.4c0.8,0,1.2-0.4,1.2-0.9s-0.3-0.8-1.1-1.1c-1.1-0.4-1.6-1-1.6-1.7
					c0-1,0.8-1.8,2.1-1.8c0.6,0,1.1,0.2,1.5,0.4l-0.3,0.8c-0.2-0.2-0.7-0.3-1.2-0.3c-0.6,0-1,0.4-1,0.8c0,0.5,0.4,0.7,1.1,1
					c1,0.4,1.6,0.9,1.6,1.8c0,1.1-0.8,1.8-2.2,1.8c-0.7,0-1.3-0.2-1.7-0.4"/>
				<path class="st8" d="M135.6,104.9v-5.2h-0.8V99h0.8v-0.3c0-0.8,0.2-1.6,0.7-2.1c0.4-0.4,0.9-0.6,1.5-0.6c0.4,0,0.7,0.1,0.9,0.2
					l-0.1,0.8c-0.2-0.1-0.4-0.1-0.7-0.1c-0.9,0-1.2,0.8-1.2,1.7V99h1.4v0.8h-1.4v5.2"/>
				<path class="st8" d="M144.4,101.9c0,2.2-1.5,3.2-3,3.2c-1.6,0-2.9-1.2-2.9-3.1c0-2,1.3-3.2,3-3.2S144.4,100.1,144.4,101.9
					 M139.7,102c0,1.3,0.8,2.3,1.8,2.3s1.8-1,1.8-2.3c0-1-0.5-2.3-1.8-2.3C140.3,99.7,139.7,100.8,139.7,102"/>
				<path class="st8" d="M145.9,100.8c0-0.7,0-1.3-0.1-1.9h0.9l0,1.2h0.1c0.3-0.8,0.9-1.3,1.6-1.3c0.1,0,0.2,0,0.3,0v1
					c-0.1,0-0.2,0-0.4,0c-0.8,0-1.3,0.6-1.5,1.4c0,0.2-0.1,0.3-0.1,0.5v3.2h-1.1"/>
				<path class="st8" d="M150,100.6c0-0.6,0-1.1-0.1-1.6h0.9l0.1,1h0c0.3-0.6,0.9-1.1,1.9-1.1c0.8,0,1.4,0.5,1.7,1.2h0
					c0.2-0.3,0.4-0.6,0.7-0.8c0.4-0.3,0.8-0.4,1.3-0.4c0.8,0,2,0.5,2,2.6v3.5h-1.1v-3.4c0-1.2-0.4-1.8-1.3-1.8c-0.6,0-1.1,0.5-1.3,1
					c-0.1,0.2-0.1,0.3-0.1,0.5v3.7h-1.1v-3.6c0-0.9-0.4-1.6-1.2-1.6c-0.7,0-1.2,0.5-1.4,1.1c-0.1,0.2-0.1,0.3-0.1,0.5v3.6H150"/>
				<path class="st8" d="M161.6,97.3c0,0.4-0.3,0.7-0.7,0.7c-0.4,0-0.6-0.3-0.6-0.7s0.3-0.7,0.7-0.7
					C161.4,96.6,161.6,96.9,161.6,97.3 M160.4,99h1.1v6h-1.1V99z"/>
				<path class="st8" d="M163.4,100.6c0-0.6,0-1.1-0.1-1.6h1l0.1,1h0c0.3-0.6,1-1.1,2-1.1c0.8,0,2.1,0.5,2.1,2.5v3.6h-1.1v-3.4
					c0-1-0.4-1.8-1.4-1.8c-0.7,0-1.3,0.5-1.5,1.1c-0.1,0.1-0.1,0.3-0.1,0.5v3.6h-1.1L163.4,100.6"/>
				<path class="st8" d="M175.4,99c0,0.4-0.1,0.9-0.1,1.6v3.5c0,1.4-0.3,2.2-0.9,2.7c-0.6,0.5-1.4,0.7-2.2,0.7c-0.7,0-1.5-0.2-2-0.5
					l0.3-0.8c0.4,0.2,1,0.5,1.8,0.5c1.1,0,1.9-0.6,1.9-2.1v-0.7h0c-0.3,0.6-1,1-1.9,1c-1.5,0-2.5-1.3-2.5-2.9c0-2,1.3-3.2,2.7-3.2
					c1,0,1.6,0.5,1.9,1h0l0.1-0.9 M174.3,101.3c0-0.2,0-0.3-0.1-0.5c-0.2-0.6-0.7-1.2-1.5-1.2c-1,0-1.8,0.9-1.8,2.3
					c0,1.2,0.6,2.2,1.8,2.2c0.7,0,1.3-0.4,1.5-1.1c0.1-0.2,0.1-0.4,0.1-0.6L174.3,101.3L174.3,101.3z"/>
				<polyline class="st8" points="184.3,101.1 181.1,101.1 181.1,104.1 184.7,104.1 184.7,104.9 180,104.9 180,96.6 184.5,96.6 
					184.5,97.5 181.1,97.5 181.1,100.2 184.3,100.2 				"/>
				<path class="st8" d="M191.2,96.2v7.2c0,0.5,0,1.1,0.1,1.5h-1l-0.1-1h0c-0.3,0.7-1.1,1.2-2,1.2c-1.4,0-2.6-1.2-2.6-3
					c0-2,1.2-3.2,2.7-3.2c0.9,0,1.5,0.4,1.8,0.9h0v-3.6 M190.1,101.4c0-0.1,0-0.3-0.1-0.5c-0.2-0.7-0.8-1.3-1.6-1.3
					c-1.1,0-1.8,1-1.8,2.3c0,1.2,0.6,2.2,1.8,2.2c0.7,0,1.4-0.5,1.6-1.3c0-0.2,0.1-0.3,0.1-0.5V101.4L190.1,101.4z"/>
				<path class="st8" d="M198.1,103.3c0,0.6,0,1.2,0.1,1.6h-1l-0.1-1h0c-0.3,0.5-0.9,1.1-2,1.1c-0.9,0-2.1-0.5-2.1-2.6V99h1.1v3.3
					c0,1.1,0.4,1.9,1.3,1.9c0.7,0,1.2-0.5,1.4-1c0.1-0.2,0.1-0.4,0.1-0.6v-3.7h1.1"/>
				<path class="st8" d="M204.2,104.7c-0.3,0.2-0.9,0.3-1.7,0.3c-1.8,0-3-1.2-3-3.1s1.3-3.2,3.2-3.2c0.6,0,1.2,0.2,1.5,0.3L204,100
					c-0.3-0.2-0.7-0.3-1.3-0.3c-1.4,0-2.1,1-2.1,2.3c0,1.4,0.9,2.2,2.1,2.2c0.6,0,1-0.2,1.3-0.3"/>
				<path class="st8" d="M208.9,104.9l-0.1-0.8h0c-0.3,0.5-1,0.9-1.8,0.9c-1.2,0-1.8-0.8-1.8-1.7c0-1.4,1.3-2.2,3.6-2.2V101
					c0-0.5-0.1-1.4-1.4-1.4c-0.6,0-1.1,0.2-1.6,0.4l-0.2-0.7c0.5-0.3,1.2-0.5,2-0.5c1.8,0,2.3,1.2,2.3,2.4v2.2c0,0.5,0,1,0.1,1.4
					 M208.7,101.9c-1.2,0-2.5,0.2-2.5,1.3c0,0.7,0.5,1,1,1c0.8,0,1.3-0.5,1.4-1c0-0.1,0.1-0.2,0.1-0.3L208.7,101.9L208.7,101.9z"/>
				<path class="st8" d="M212.8,97.2V99h1.6v0.8h-1.6v3.2c0,0.7,0.2,1.2,0.8,1.2c0.3,0,0.5,0,0.6-0.1l0.1,0.8
					c-0.2,0.1-0.5,0.2-1,0.2c-0.5,0-0.9-0.2-1.2-0.5c-0.3-0.3-0.4-0.8-0.4-1.6v-3.3h-0.9V99h0.9v-1.4"/>
				<path class="st8" d="M216.9,97.3c0,0.4-0.3,0.7-0.7,0.7c-0.4,0-0.6-0.3-0.6-0.7s0.3-0.7,0.7-0.7
					C216.6,96.6,216.9,96.9,216.9,97.3 M215.7,99h1.1v6h-1.1V99z"/>
				<path class="st8" d="M224,101.9c0,2.2-1.5,3.2-3,3.2c-1.6,0-2.9-1.2-2.9-3.1c0-2,1.3-3.2,3-3.2S224,100.1,224,101.9 M219.3,102
					c0,1.3,0.8,2.3,1.8,2.3s1.8-1,1.8-2.3c0-1-0.5-2.3-1.8-2.3C219.9,99.7,219.3,100.8,219.3,102"/>
				<path class="st8" d="M225.5,100.6c0-0.6,0-1.1-0.1-1.6h1l0.1,1h0c0.3-0.6,1-1.1,2-1.1c0.8,0,2.1,0.5,2.1,2.5v3.6h-1.1v-3.4
					c0-1-0.4-1.8-1.4-1.8c-0.7,0-1.3,0.5-1.5,1.1c-0.1,0.1-0.1,0.3-0.1,0.5v3.6h-1.1"/>
			</g>
		</g>
	</g>
</g>
</svg>
